<svg xmlns="http://www.w3.org/2000/svg" xmlns:xlink="http://www.w3.org/1999/xlink" version="1.1" width="1080" height="1080" viewBox="0 0 1080 1080" xml:space="preserve">
  <desc>Created with Fabric.js 5.2.4</desc>
  <defs></defs>
  <g transform="matrix(1 0 0 1 540 540)" id="018724f7-a8ec-40c0-a428-8b5886231b59"></g>
  <g transform="matrix(1 0 0 1 540 540)" id="5bd94f9b-9a5c-4d4e-939d-ca24deb985ae">
    <rect style="stroke: none; stroke-width: 1; stroke-dasharray: none; stroke-linecap: butt; stroke-dashoffset: 0; stroke-linejoin: miter; stroke-miterlimit: 4; fill: rgb(255,255,255); fill-rule: nonzero; opacity: 1; visibility: hidden;" vector-effect="non-scaling-stroke" x="-540" y="-540" rx="0" ry="0" width="1080" height="1080" />
  </g>
  <g transform="matrix(3.62 0 0 3.62 486.36 253.96)">
    <g style="">
      <g transform="matrix(1 0 0 1 3.73 77.26)">
        <path style="stroke: none; stroke-width: 1; stroke-dasharray: none; stroke-linecap: butt; stroke-dashoffset: 0; stroke-linejoin: miter; stroke-miterlimit: 4; fill: rgb(104,225,253); fill-rule: nonzero; opacity: 1;" vector-effect="non-scaling-stroke" transform=" translate(-253.73, -327.26)" d="M 234.37 248.88 C 234.37 248.88 157.52 240.74 160.42000000000002 281.39 C 163.32000000000002 322.04999999999995 206.4 408.68 206.4 408.68 L 300.78 408.68 C 300.78 408.68 372.40999999999997 298.81 337.55999999999995 263.48 C 302.7099999999999 228.15000000000003 294.7699999999999 258.47 234.36999999999995 248.88000000000002 Z" stroke-linecap="round" />
      </g>
      <g transform="matrix(1 0 0 1 5.87 167.57)" id="person_ui-design-25">
        <polygon style="stroke: none; stroke-width: 1; stroke-dasharray: none; stroke-linecap: butt; stroke-dashoffset: 0; stroke-linejoin: miter; stroke-miterlimit: 4; fill: rgb(36,40,91); fill-rule: nonzero; opacity: 1;" vector-effect="non-scaling-stroke" points="-49.61,4.33 7.85,19.83 58.8,-6.04 66.55,-19.83 15.18,-19.83 -66.55,-19.83 -49.61,4.33 " />
      </g>
      <g transform="matrix(1 0 0 1 -63.94 73.98)">
        <path style="stroke: none; stroke-width: 1; stroke-dasharray: none; stroke-linecap: butt; stroke-dashoffset: 0; stroke-linejoin: miter; stroke-miterlimit: 4; fill: rgb(104,225,253); fill-rule: nonzero; opacity: 1;" vector-effect="non-scaling-stroke" transform=" translate(-186.06, -323.99)" d="M 197.31 292.96 C 204.5 268.88 190.91 242.58999999999997 165.19 261.84999999999997 C 147.56 275.04999999999995 126.65 317.15999999999997 125.57 356.11999999999995 C 123.07 445.68999999999994 232.94 349.3299999999999 246.58999999999997 298.03999999999996 L 233.06999999999996 290.04999999999995 C 233.06999999999996 290.04999999999995 210.28999999999996 333.00999999999993 185.45999999999998 342.31999999999994 C 167.54999999999998 349.0299999999999 186.68999999999997 328.5199999999999 197.32 292.94999999999993 Z" stroke-linecap="round" />
      </g>
      <g transform="matrix(1 0 0 1 -63.94 73.98)">
        <path style="stroke: none; stroke-width: 1; stroke-dasharray: none; stroke-linecap: butt; stroke-dashoffset: 0; stroke-linejoin: miter; stroke-miterlimit: 4; fill: rgb(255,255,255); fill-rule: nonzero; opacity: 0.46;" vector-effect="non-scaling-stroke" transform=" translate(-186.06, -323.99)" d="M 197.31 292.96 C 204.5 268.88 190.91 242.58999999999997 165.19 261.84999999999997 C 147.56 275.04999999999995 126.65 317.15999999999997 125.57 356.11999999999995 C 123.07 445.68999999999994 232.94 349.3299999999999 246.58999999999997 298.03999999999996 L 233.06999999999996 290.04999999999995 C 233.06999999999996 290.04999999999995 210.28999999999996 333.00999999999993 185.45999999999998 342.31999999999994 C 167.54999999999998 349.0299999999999 186.68999999999997 328.5199999999999 197.32 292.94999999999993 Z" stroke-linecap="round" />
      </g>
      <g transform="matrix(1 0 0 1 0.04 10.36)">
        <path style="stroke: none; stroke-width: 1; stroke-dasharray: none; stroke-linecap: butt; stroke-dashoffset: 0; stroke-linejoin: miter; stroke-miterlimit: 4; fill: rgb(255,255,255); fill-rule: nonzero; opacity: 1;" vector-effect="non-scaling-stroke" transform=" translate(-250.04, -260.36)" d="M 234.37 248.88 C 234.37 248.88 222.55 267.48 234.13 274.14 C 245.72 280.8 249.43 273.2 249.43 273.2 C 249.43 273.2 258.07 283.38 265.78000000000003 275.49 C 273.49 267.59000000000003 272.42 251.88 264.54 244.63 C 256.66 237.38 234.36 248.89 234.36 248.89 Z" stroke-linecap="round" />
      </g>
      <g transform="matrix(1 0 0 1 0.39 4.65)">
        <path style="stroke: none; stroke-width: 1; stroke-dasharray: none; stroke-linecap: butt; stroke-dashoffset: 0; stroke-linejoin: miter; stroke-miterlimit: 4; fill: rgb(244,162,140); fill-rule: nonzero; opacity: 1;" vector-effect="non-scaling-stroke" transform=" translate(-250.39, -254.65)" d="M 237.06 249.49 C 237.56 252.92000000000002 237.98 256.36 238.09 259.83 C 238.24 264.59 239.77 271.65 247.27 273.03999999999996 C 258.84000000000003 275.17999999999995 261.92 256.87999999999994 261.92 256.87999999999994 C 261.92 256.87999999999994 269.21000000000004 239.72999999999993 256.68 237.37999999999994 C 245.4 235.25999999999993 234.76 233.74999999999994 237.07 249.48999999999995 Z" stroke-linecap="round" />
      </g>
      <g transform="matrix(1 0 0 1 18.49 91.95)">
        <path style="stroke: none; stroke-width: 1; stroke-dasharray: none; stroke-linecap: butt; stroke-dashoffset: 0; stroke-linejoin: miter; stroke-miterlimit: 4; fill: rgb(0,0,1); fill-rule: nonzero; opacity: 0.08;" vector-effect="non-scaling-stroke" transform=" translate(-268.49, -341.96)" d="M 281.68 275.3 C 281.68 275.3 274.5 290.37 292.65000000000003 321.28000000000003 C 303.04 338.97 271.04 368.5 271.04 368.5 L 191.43 376.47 L 206.39000000000001 408.70000000000005 L 300.77 408.70000000000005 C 300.77 408.70000000000005 342.24 341.24000000000007 345.44 306.52000000000004 C 348.64 271.80000000000007 281.65999999999997 275.31000000000006 281.65999999999997 275.31000000000006 Z" stroke-linecap="round" />
      </g>
      <g transform="matrix(1 0 0 1 15.26 5.71)">
        <path style="stroke: none; stroke-width: 1; stroke-dasharray: none; stroke-linecap: butt; stroke-dashoffset: 0; stroke-linejoin: miter; stroke-miterlimit: 4; fill: rgb(244,162,140); fill-rule: nonzero; opacity: 1;" vector-effect="non-scaling-stroke" transform=" translate(-265.26, -255.71)" d="M 261.2 257.62 C 261.2 257.62 261.86 252.06 266.71 252.3 C 271.56 252.54000000000002 269.65 262.92 261.2 257.62 Z" stroke-linecap="round" />
      </g>
      <g transform="matrix(1 0 0 1 -13.39 0.92)">
        <path style="stroke: none; stroke-width: 1; stroke-dasharray: none; stroke-linecap: butt; stroke-dashoffset: 0; stroke-linejoin: miter; stroke-miterlimit: 4; fill: rgb(244,162,140); fill-rule: nonzero; opacity: 1;" vector-effect="non-scaling-stroke" transform=" translate(-236.61, -250.92)" d="M 239.86 254.53 C 239.86 254.53 241.56 249.2 237.05 247.4 C 232.54000000000002 245.61 229.97 255.85 239.86 254.53 Z" stroke-linecap="round" />
      </g>
      <g transform="matrix(1 0 0 1 4.3 118.48)" id="person_ui-design-25">
        <polygon style="stroke: none; stroke-width: 1; stroke-dasharray: none; stroke-linecap: butt; stroke-dashoffset: 0; stroke-linejoin: miter; stroke-miterlimit: 4; fill: rgb(255,210,0); fill-rule: nonzero; opacity: 1;" vector-effect="non-scaling-stroke" points="-44.28,24.35 -50.94,-36.32 50.94,-36.32 40.77,27.45 42.22,35.63 -45.37,36.32 -44.28,24.35 " />
      </g>
      <g transform="matrix(1 0 0 1 5.84 181.05)">
        <path style="stroke: none; stroke-width: 1; stroke-dasharray: none; stroke-linecap: butt; stroke-dashoffset: 0; stroke-linejoin: miter; stroke-miterlimit: 4; fill: rgb(104,225,253); fill-rule: nonzero; opacity: 1;" vector-effect="non-scaling-stroke" transform=" translate(-255.84, -431.05)" d="M 251.02 421.9 C 251.02 421.9 270.36 428.65999999999997 263.72 437.4 C 257.08000000000004 446.14 246.58000000000004 431.62 246.58000000000004 431.62 L 251.02000000000004 421.9 Z" stroke-linecap="round" />
      </g>
      <g transform="matrix(1 0 0 1 7.1 118.49)">
        <path style="stroke: none; stroke-width: 1; stroke-dasharray: none; stroke-linecap: butt; stroke-dashoffset: 0; stroke-linejoin: miter; stroke-miterlimit: 4; fill: rgb(0,0,1); fill-rule: nonzero; opacity: 0.08;" vector-effect="non-scaling-stroke" transform=" translate(-257.1, -368.49)" d="M 305.24 332.16 L 285.04 358.83000000000004 C 273.25 374.39000000000004 257.33000000000004 386.34000000000003 239.10000000000002 393.30000000000007 L 208.94000000000003 404.81000000000006 L 289.72 404.1700000000001 L 296.54 404.12000000000006 L 295.09000000000003 395.95000000000005 L 305.25000000000006 332.1700000000001 Z" stroke-linecap="round" />
      </g>
      <g transform="matrix(1 0 0 1 2.38 -18.6)">
        <path style="stroke: none; stroke-width: 1; stroke-dasharray: none; stroke-linecap: butt; stroke-dashoffset: 0; stroke-linejoin: miter; stroke-miterlimit: 4; fill: rgb(36,40,91); fill-rule: nonzero; opacity: 1;" vector-effect="non-scaling-stroke" transform=" translate(-252.39, -231.4)" d="M 237.06 249.49 C 237.06 249.49 218.31 246.8 226.69 233.01000000000002 C 235.07 219.22000000000003 236.93 229.56000000000003 240.89 218.87 C 244.85 208.18 248.41 206.12 254.22 210.69 C 260.03 215.25 254.4 224.81 263.18 222.13 C 271.96 219.45 277.95 216.93 279.62 224.21 C 281.29 231.48000000000002 279.66 234.96 273.97 237.46 C 268.28000000000003 239.96 277.19000000000005 249.74 262.98 253.74 C 248.77 257.73 241.38000000000002 242.21 241.38000000000002 242.21 L 237.06000000000003 249.51000000000002 Z" stroke-linecap="round" />
      </g>
      <g transform="matrix(1 0 0 1 -41.07 164.15)">
        <path style="stroke: none; stroke-width: 1; stroke-dasharray: none; stroke-linecap: butt; stroke-dashoffset: 0; stroke-linejoin: miter; stroke-miterlimit: 4; fill: rgb(36,40,91); fill-rule: nonzero; opacity: 1;" vector-effect="non-scaling-stroke" transform=" translate(-208.93, -414.16)" d="M 251.61 418.52 C 251.61 418.52 173.47000000000003 378.63 166.81 399.84999999999997 C 160.15 421.06999999999994 214 433.40999999999997 248.76 434.67999999999995 L 251.60999999999999 418.50999999999993 Z" stroke-linecap="round" />
      </g>
      <g transform="matrix(1 0 0 1 5.3 114.85)" id="person_ui-design-25">
        <circle style="stroke: none; stroke-width: 1; stroke-dasharray: none; stroke-linecap: butt; stroke-dashoffset: 0; stroke-linejoin: miter; stroke-miterlimit: 4; fill: rgb(255,255,255); fill-rule: nonzero; opacity: 1;" vector-effect="non-scaling-stroke" cx="0" cy="0" r="8.73" />
      </g>
      <g transform="matrix(1 0 0 1 59.22 155.46)">
        <path style="stroke: none; stroke-width: 1; stroke-dasharray: none; stroke-linecap: butt; stroke-dashoffset: 0; stroke-linejoin: miter; stroke-miterlimit: 4; fill: rgb(36,40,91); fill-rule: nonzero; opacity: 1;" vector-effect="non-scaling-stroke" transform=" translate(-309.22, -405.47)" d="M 270.6 421.65 C 270.6 421.65 332.92 359.9 345.71000000000004 378.09999999999997 C 358.50000000000006 396.29999999999995 310.95000000000005 424.40999999999997 278.22 436.18999999999994 L 270.59000000000003 421.65999999999997 Z" stroke-linecap="round" />
      </g>
      <g transform="matrix(1 0 0 1 20.09 187.4)">
        <path style="stroke: none; stroke-width: 1; stroke-dasharray: none; stroke-linecap: butt; stroke-dashoffset: 0; stroke-linejoin: miter; stroke-miterlimit: 4; fill: rgb(104,225,253); fill-rule: nonzero; opacity: 1;" vector-effect="non-scaling-stroke" transform=" translate(-270.08, -437.4)" d="M 273.04 426.3 C 273.04 426.3 254.58 442.75 265.27000000000004 447.59000000000003 C 275.96000000000004 452.43 278.23 436.18 278.23 436.18 L 273.04 426.3 Z" stroke-linecap="round" />
      </g>
      <g transform="matrix(1 0 0 1 97.85 62.92)">
        <path style="stroke: none; stroke-width: 1; stroke-dasharray: none; stroke-linecap: butt; stroke-dashoffset: 0; stroke-linejoin: miter; stroke-miterlimit: 4; fill: rgb(104,225,253); fill-rule: nonzero; opacity: 1;" vector-effect="non-scaling-stroke" transform=" translate(-347.85, -312.91)" d="M 281.68 275.3 C 280.24 260.85 290.74 247.97000000000003 305.17 246.42000000000002 C 319.26 244.9 337.78000000000003 245.84 354.24 256.16 C 386.18 276.18 421.52 292.15000000000003 412.8 328.45000000000005 C 404.09000000000003 364.75000000000006 340.68 379.98 340.68 379.98 L 332.23 366.20000000000005 C 332.23 366.20000000000005 388.11 347.32000000000005 377.95000000000005 317.80000000000007 C 368.79 291.19000000000005 287.69000000000005 335.64000000000004 281.6700000000001 275.30000000000007 Z" stroke-linecap="round" />
      </g>
      <g transform="matrix(1 0 0 1 97.85 62.92)">
        <path style="stroke: none; stroke-width: 1; stroke-dasharray: none; stroke-linecap: butt; stroke-dashoffset: 0; stroke-linejoin: miter; stroke-miterlimit: 4; fill: rgb(255,255,255); fill-rule: nonzero; opacity: 0.46;" vector-effect="non-scaling-stroke" transform=" translate(-347.85, -312.91)" d="M 281.68 275.3 C 280.24 260.85 290.74 247.97000000000003 305.17 246.42000000000002 C 319.26 244.9 337.78000000000003 245.84 354.24 256.16 C 386.18 276.18 421.52 292.15000000000003 412.8 328.45000000000005 C 404.09000000000003 364.75000000000006 340.68 379.98 340.68 379.98 L 332.23 366.20000000000005 C 332.23 366.20000000000005 388.11 347.32000000000005 377.95000000000005 317.80000000000007 C 368.79 291.19000000000005 287.69000000000005 335.64000000000004 281.6700000000001 275.30000000000007 Z" stroke-linecap="round" />
      </g>
      <g transform="matrix(1 0 0 1 80.33 126.46)">
        <path style="stroke: none; stroke-width: 1; stroke-dasharray: none; stroke-linecap: butt; stroke-dashoffset: 0; stroke-linejoin: miter; stroke-miterlimit: 4; fill: rgb(244,162,140); fill-rule: nonzero; opacity: 1;" vector-effect="non-scaling-stroke" transform=" translate(-330.32, -376.46)" d="M 333.64 368.49 C 333.64 368.49 316.01 380.41 322.41999999999996 383.69 C 328.83 386.96999999999997 339.62999999999994 378.25 339.62999999999994 378.25 L 333.63999999999993 368.49 Z" stroke-linecap="round" />
      </g>
      <g transform="matrix(1 0 0 1 -5.64 37.29)">
        <path style="stroke: none; stroke-width: 1; stroke-dasharray: none; stroke-linecap: butt; stroke-dashoffset: 0; stroke-linejoin: miter; stroke-miterlimit: 4; fill: rgb(244,162,140); fill-rule: nonzero; opacity: 1;" vector-effect="non-scaling-stroke" transform=" translate(-244.36, -287.28)" d="M 235.43 291.45 C 235.43 291.45 241.74 275.96999999999997 250.39000000000001 277.21999999999997 C 259.04 278.46999999999997 245.54000000000002 297.41999999999996 245.54000000000002 297.41999999999996 L 235.43 291.44999999999993 Z" stroke-linecap="round" />
      </g>
    </g>
  </g>
</svg>