<?xml version="1.0" encoding="UTF-8" standalone="no" ?>
<!DOCTYPE svg PUBLIC "-//W3C//DTD SVG 1.1//EN" "http://www.w3.org/Graphics/SVG/1.1/DTD/svg11.dtd">
<svg xmlns="http://www.w3.org/2000/svg" xmlns:xlink="http://www.w3.org/1999/xlink" version="1.1" width="1080" height="1080" viewBox="0 0 1080 1080" xml:space="preserve">
<desc>Created with Fabric.js 5.2.4</desc>
<defs>
</defs>
<g transform="matrix(1 0 0 1 540 540)" id="53783529-6e61-4038-a4b8-dce8521c0c6f"  >
<rect style="stroke: none; stroke-width: 1; stroke-dasharray: none; stroke-linecap: butt; stroke-dashoffset: 0; stroke-linejoin: miter; stroke-miterlimit: 4; fill: rgb(255,255,255); fill-rule: nonzero; opacity: 1; visibility: hidden;" vector-effect="non-scaling-stroke"  x="-540" y="-540" rx="0" ry="0" width="1080" height="1080" />
</g>
<g transform="matrix(1 0 0 1 540 540)" id="d5213fb5-1cd7-457c-ad54-82e60f5c3ad0"  >
</g>
<g transform="matrix(3.01 0 0 3.01 903 408.56)"  >
<g style=""   >
		<g transform="matrix(1 0 0 1 -101.33 44.53)" id="person_data-visualization-52"  >
<path style="stroke: none; stroke-width: 1; stroke-dasharray: none; stroke-linecap: butt; stroke-dashoffset: 0; stroke-linejoin: miter; stroke-miterlimit: 4; fill: rgb(104,225,253); fill-rule: nonzero; opacity: 1;" vector-effect="non-scaling-stroke"  transform=" translate(-148.67, -294.53)" d="M 176.85 222.38 C 176.85 222.38 193.20999999999998 256.45 178.23999999999998 298.15999999999997 C 163.26999999999998 339.86999999999995 195.86999999999998 360.92999999999995 132.7 366.53 C 69.52999999999999 372.11999999999995 176.85 222.37999999999997 176.85 222.37999999999997 Z" stroke-linecap="round" />
</g>
		<g transform="matrix(1 0 0 1 -101.33 44.53)" id="person_data-visualization-52"  >
<path style="stroke: none; stroke-width: 1; stroke-dasharray: none; stroke-linecap: butt; stroke-dashoffset: 0; stroke-linejoin: miter; stroke-miterlimit: 4; fill: rgb(255,255,255); fill-rule: nonzero; opacity: 0.46;" vector-effect="non-scaling-stroke"  transform=" translate(-148.67, -294.53)" d="M 176.85 222.38 C 176.85 222.38 193.20999999999998 256.45 178.23999999999998 298.15999999999997 C 163.26999999999998 339.86999999999995 195.86999999999998 360.92999999999995 132.7 366.53 C 69.52999999999999 372.11999999999995 176.85 222.37999999999997 176.85 222.37999999999997 Z" stroke-linecap="round" />
</g>
		<g transform="matrix(1 0 0 1 -122.15 -106.98)" id="person_data-visualization-52"  >
<path style="stroke: none; stroke-width: 1; stroke-dasharray: none; stroke-linecap: butt; stroke-dashoffset: 0; stroke-linejoin: miter; stroke-miterlimit: 4; fill: rgb(244,162,140); fill-rule: nonzero; opacity: 1;" vector-effect="non-scaling-stroke"  transform=" translate(-127.85, -143.02)" d="M 134.05 133.94 C 134.05 133.94 139.07000000000002 143.29 140.21 150.45 C 140.67000000000002 153.35 138.66 156.13 135.75 156.54999999999998 C 132.13 157.07 127.09 156.73 123.8 152.04999999999998 L 117.22999999999999 144.79 C 117.22999999999999 144.79 113.27 140.09 117.07 133.78 C 120.86999999999999 127.47 131.29 128.1 134.06 133.95 Z" stroke-linecap="round" />
</g>
		<g transform="matrix(1 0 0 1 -126.77 -85.36)" id="person_data-visualization-52"  >
<polygon style="stroke: none; stroke-width: 1; stroke-dasharray: none; stroke-linecap: butt; stroke-dashoffset: 0; stroke-linejoin: miter; stroke-miterlimit: 4; fill: rgb(244,162,140); fill-rule: nonzero; opacity: 1;" vector-effect="non-scaling-stroke"  points="-1.12,-18.51 -9.46,15.25 9.47,18.52 7.97,-6.71 -1.12,-18.51 " />
</g>
		<g transform="matrix(1 0 0 1 -110.52 -106.13)" id="person_data-visualization-52"  >
<path style="stroke: none; stroke-width: 1; stroke-dasharray: none; stroke-linecap: butt; stroke-dashoffset: 0; stroke-linejoin: miter; stroke-miterlimit: 4; fill: rgb(244,162,140); fill-rule: nonzero; opacity: 1;" vector-effect="non-scaling-stroke"  transform=" translate(-139.48, -143.87)" d="M 136.9 139.99 L 141.23000000000002 142.58 C 142.3 143.22 142.34000000000003 144.75 141.31000000000003 145.45000000000002 L 137.88000000000002 147.75000000000003 L 136.90000000000003 139.99000000000004 Z" stroke-linecap="round" />
</g>
		<g transform="matrix(1 0 0 1 -123 -88.15)" id="person_data-visualization-52"  >
<path style="stroke: none; stroke-width: 1; stroke-dasharray: none; stroke-linecap: butt; stroke-dashoffset: 0; stroke-linejoin: miter; stroke-miterlimit: 4; fill: rgb(206,129,114); fill-rule: nonzero; opacity: 0.31;" vector-effect="non-scaling-stroke"  transform=" translate(-127, -161.85)" d="M 131.3 156.6 C 131.3 156.6 124.35000000000001 155.10999999999999 122.04 152.92 C 122.04 152.92 122.7 168.73 131.97 170.79 L 131.31 156.59 Z" stroke-linecap="round" />
</g>
		<g transform="matrix(1 0 0 1 -126.89 -103.79)" id="person_data-visualization-52"  >
<path style="stroke: none; stroke-width: 1; stroke-dasharray: none; stroke-linecap: butt; stroke-dashoffset: 0; stroke-linejoin: miter; stroke-miterlimit: 4; fill: rgb(244,162,140); fill-rule: nonzero; opacity: 1;" vector-effect="non-scaling-stroke"  transform=" translate(-123.11, -146.21)" d="M 125.87 145.65 C 125.87 145.65 124.19 141.93 121.49000000000001 143.43 C 118.79 144.93 121.2 150.32 125.25000000000001 149.18 L 125.87000000000002 145.65 Z" stroke-linecap="round" />
</g>
		<g transform="matrix(1 0 0 1 -123.35 -110.32)" id="person_data-visualization-52"  >
<path style="stroke: none; stroke-width: 1; stroke-dasharray: none; stroke-linecap: butt; stroke-dashoffset: 0; stroke-linejoin: miter; stroke-miterlimit: 4; fill: rgb(36,40,91); fill-rule: nonzero; opacity: 1;" vector-effect="non-scaling-stroke"  transform=" translate(-126.65, -139.68)" d="M 112.77 143.36 L 115.77 146.60000000000002 C 115.77 146.60000000000002 120.53999999999999 155.58 128.01999999999998 159.09000000000003 C 135.51 162.60000000000002 144.23999999999998 159.56000000000003 143.48999999999998 152.65000000000003 C 142.62999999999997 144.73000000000005 137.86999999999998 147.75000000000003 130.88 148.99000000000004 C 123.88 150.23000000000005 122.85 140.71000000000004 122.85 140.71000000000004 C 125.89999999999999 140.07000000000005 127.64 137.96000000000004 128.62 135.80000000000004 L 132.22 132.82000000000005 C 135.69 129.94000000000005 135.8 124.64000000000004 132.43 121.65000000000005 C 130.53 119.97000000000004 128.16 118.68000000000005 125.39 118.81000000000004 C 117.94 119.18000000000005 103.5 133.78000000000006 112.77 143.35000000000005 Z" stroke-linecap="round" />
</g>
		<g transform="matrix(1 0 0 1 -133.4 -103.61)" id="person_data-visualization-52"  >
<path style="stroke: none; stroke-width: 1; stroke-dasharray: none; stroke-linecap: butt; stroke-dashoffset: 0; stroke-linejoin: miter; stroke-miterlimit: 4; fill: rgb(244,162,140); fill-rule: nonzero; opacity: 1;" vector-effect="non-scaling-stroke"  transform=" translate(-116.6, -146.39)" d="M 119 142.95 C 119 142.95 113.3 141.10999999999999 112.34 145.53 C 111.38000000000001 149.95000000000002 117.7 151.82 120.95 148.53 C 120.95 148.53 118.89 146.29 119 142.95 Z" stroke-linecap="round" />
</g>
		<g transform="matrix(-1 0 0 -1 -147.04 163.44)" id="person_data-visualization-52"  >
<rect style="stroke: none; stroke-width: 1; stroke-dasharray: none; stroke-linecap: butt; stroke-dashoffset: 0; stroke-linejoin: miter; stroke-miterlimit: 4; fill: rgb(230,230,230); fill-rule: nonzero; opacity: 1;" vector-effect="non-scaling-stroke"  x="-61.48" y="-43.935" rx="0" ry="0" width="122.96" height="87.87" />
</g>
		<g transform="matrix(1 0 0 1 -99.06 168.7)" id="person_data-visualization-52"  >
<polygon style="stroke: none; stroke-width: 1; stroke-dasharray: none; stroke-linecap: butt; stroke-dashoffset: 0; stroke-linejoin: miter; stroke-miterlimit: 4; fill: rgb(0,0,1); fill-rule: nonzero; opacity: 0.08;" vector-effect="non-scaling-stroke"  points="-18.96,38.69 -13.04,-38.69 11.62,-34.93 18.96,-5.25 13.5,38.69 -18.96,38.69 " />
</g>
		<g transform="matrix(1 0 0 1 -112.11 205.65)" id="person_data-visualization-52"  >
<path style="stroke: none; stroke-width: 1; stroke-dasharray: none; stroke-linecap: butt; stroke-dashoffset: 0; stroke-linejoin: miter; stroke-miterlimit: 4; fill: rgb(104,225,253); fill-rule: nonzero; opacity: 1;" vector-effect="non-scaling-stroke"  transform=" translate(-137.89, -455.65)" d="M 135.07 447.23 C 135.07 447.23 137.70999999999998 454.55 144.32 455.11 C 150.93 455.67 152.67 462.14 146.72 463.83000000000004 C 140.77 465.52000000000004 125.42 457.87000000000006 125.42 457.87000000000006 L 125.85000000000001 448.32000000000005 L 135.07000000000002 447.2300000000001 Z" stroke-linecap="round" />
</g>
		<g transform="matrix(1 0 0 1 -143.08 25.3)" id="person_data-visualization-52"  >
<path style="stroke: none; stroke-width: 1; stroke-dasharray: none; stroke-linecap: butt; stroke-dashoffset: 0; stroke-linejoin: miter; stroke-miterlimit: 4; fill: rgb(104,225,253); fill-rule: nonzero; opacity: 1;" vector-effect="non-scaling-stroke"  transform=" translate(-106.92, -275.3)" d="M 134.32 182.78 L 115.38999999999999 179.52 C 115.38999999999999 179.52 52.41999999999999 179.62 41.389999999999986 201.18 C 30.369999999999987 222.74 32.679999999999986 303.02 69.10999999999999 368.92 L 143.7 371.08000000000004 C 143.7 371.08000000000004 139.56 322.68000000000006 153.45999999999998 296.32000000000005 C 167.35999999999999 269.96000000000004 210.55999999999997 213.97000000000006 134.32999999999998 182.78000000000003 Z" stroke-linecap="round" />
</g>
		<g transform="matrix(1 0 0 1 -142.6 155.44)" id="person_data-visualization-52"  >
<path style="stroke: none; stroke-width: 1; stroke-dasharray: none; stroke-linecap: butt; stroke-dashoffset: 0; stroke-linejoin: miter; stroke-miterlimit: 4; fill: rgb(36,40,91); fill-rule: nonzero; opacity: 1;" vector-effect="non-scaling-stroke"  transform=" translate(-107.4, -405.44)" d="M 69.1 368.91 L 105.57999999999998 363.41 C 128.14999999999998 360.01000000000005 147.85999999999999 378.81 145.51999999999998 401.51000000000005 L 140.76 447.86000000000007 L 122.85999999999999 447.86000000000007 C 122.85999999999999 447.86000000000007 124.40999999999998 404.4700000000001 124.40999999999998 404.4700000000001 C 124.77999999999999 394.12000000000006 115.61999999999998 386.0000000000001 105.38999999999999 387.6400000000001 C 89.85999999999999 390.1400000000001 70.61999999999998 389.0600000000001 69.08999999999999 368.9100000000001 Z" stroke-linecap="round" />
</g>
		<g transform="matrix(1 0 0 1 -74.97 205.65)" id="person_data-visualization-52"  >
<path style="stroke: none; stroke-width: 1; stroke-dasharray: none; stroke-linecap: butt; stroke-dashoffset: 0; stroke-linejoin: miter; stroke-miterlimit: 4; fill: rgb(104,225,253); fill-rule: nonzero; opacity: 1;" vector-effect="non-scaling-stroke"  transform=" translate(-175.03, -455.65)" d="M 172.21 447.23 C 172.21 447.23 174.85 454.55 181.46 455.11 C 188.08 455.67 189.81 462.14 183.86 463.83000000000004 C 177.91000000000003 465.52000000000004 162.56 457.87000000000006 162.56 457.87000000000006 L 162.99 448.32000000000005 L 172.21 447.2300000000001 Z" stroke-linecap="round" />
</g>
		<g transform="matrix(1 0 0 1 -167.31 38.91)" id="person_data-visualization-52"  >
<path style="stroke: none; stroke-width: 1; stroke-dasharray: none; stroke-linecap: butt; stroke-dashoffset: 0; stroke-linejoin: miter; stroke-miterlimit: 4; fill: rgb(0,0,1); fill-rule: nonzero; opacity: 0.08;" vector-effect="non-scaling-stroke"  transform=" translate(-82.69, -288.91)" d="M 75.5 208.91 C 75.5 208.91 96.17 227.04 92.02 247.05 C 91.35 250.28 90.64999999999999 254.19 89.95 258.48 C 84.47 292.07000000000005 94.36 326.36 116.76 351.98 L 129.79 366.88 L 69.1 368.92 L 63.91 358.75 L 35.58 311.65999999999997 L 75.5 208.90999999999997 Z" stroke-linecap="round" />
</g>
		<g transform="matrix(1 0 0 1 -105.46 155.44)" id="person_data-visualization-52"  >
<path style="stroke: none; stroke-width: 1; stroke-dasharray: none; stroke-linecap: butt; stroke-dashoffset: 0; stroke-linejoin: miter; stroke-miterlimit: 4; fill: rgb(36,40,91); fill-rule: nonzero; opacity: 1;" vector-effect="non-scaling-stroke"  transform=" translate(-144.54, -405.44)" d="M 106.24 368.91 L 142.72 363.41 C 165.29 360.01000000000005 185 378.81 182.66 401.51000000000005 L 177.9 447.86000000000007 L 160 447.86000000000007 C 160 447.86000000000007 161.55 404.4700000000001 161.55 404.4700000000001 C 161.92000000000002 394.12000000000006 152.76000000000002 386.0000000000001 142.53 387.6400000000001 C 127 390.1400000000001 107.75999999999999 389.0600000000001 106.23 368.9100000000001 Z" stroke-linecap="round" />
</g>
		<g transform="matrix(1 0 0 1 -179.91 28.63)" id="person_data-visualization-52"  >
<path style="stroke: none; stroke-width: 1; stroke-dasharray: none; stroke-linecap: butt; stroke-dashoffset: 0; stroke-linejoin: miter; stroke-miterlimit: 4; fill: rgb(104,225,253); fill-rule: nonzero; opacity: 1;" vector-effect="non-scaling-stroke"  transform=" translate(-70.09, -278.63)" d="M 40.33 203.16 C 26.519999999999996 222.6 14.229999999999997 265.55 24.9 326.05 C 28.15 344.46000000000004 43.67 358.23 62.33 359.41 L 119.32 363.01000000000005 L 119.32 344.4200000000001 C 119.32 344.4200000000001 76.00999999999999 338.1600000000001 76.00999999999999 338.1600000000001 C 65.92999999999999 336.7000000000001 59.53999999999999 326.62000000000006 62.49999999999999 316.8800000000001 C 70.13 291.7700000000001 81.94 246.2600000000001 78.88999999999999 213.8200000000001 C 77.03999999999999 194.12000000000012 51.789999999999985 187.03000000000011 40.329999999999984 203.1600000000001 Z" stroke-linecap="round" />
</g>
		<g transform="matrix(1 0 0 1 -179.91 28.63)" id="person_data-visualization-52"  >
<path style="stroke: none; stroke-width: 1; stroke-dasharray: none; stroke-linecap: butt; stroke-dashoffset: 0; stroke-linejoin: miter; stroke-miterlimit: 4; fill: rgb(255,255,255); fill-rule: nonzero; opacity: 0.46;" vector-effect="non-scaling-stroke"  transform=" translate(-70.09, -278.63)" d="M 40.33 203.16 C 26.519999999999996 222.6 14.229999999999997 265.55 24.9 326.05 C 28.15 344.46000000000004 43.67 358.23 62.33 359.41 L 119.32 363.01000000000005 L 119.32 344.4200000000001 C 119.32 344.4200000000001 76.00999999999999 338.1600000000001 76.00999999999999 338.1600000000001 C 65.92999999999999 336.7000000000001 59.53999999999999 326.62000000000006 62.49999999999999 316.8800000000001 C 70.13 291.7700000000001 81.94 246.2600000000001 78.88999999999999 213.8200000000001 C 77.03999999999999 194.12000000000012 51.789999999999985 187.03000000000011 40.329999999999984 203.1600000000001 Z" stroke-linecap="round" />
</g>
		<g transform="matrix(1 0 0 1 -120.6 107.72)" id="person_data-visualization-52"  >
<path style="stroke: none; stroke-width: 1; stroke-dasharray: none; stroke-linecap: butt; stroke-dashoffset: 0; stroke-linejoin: miter; stroke-miterlimit: 4; fill: rgb(244,162,140); fill-rule: nonzero; opacity: 1;" vector-effect="non-scaling-stroke"  transform=" translate(-129.4, -357.72)" d="M 119.32 348.92 C 119.32 348.92 142.45 348.33000000000004 139.16 360.39000000000004 C 135.85999999999999 372.45000000000005 119.32 363.00000000000006 119.32 363.00000000000006 L 119.32 348.9200000000001 Z" stroke-linecap="round" />
</g>
		<g transform="matrix(1 0 0 1 -95.55 90.96)" id="person_data-visualization-52"  >
<polygon style="stroke: none; stroke-width: 1; stroke-dasharray: none; stroke-linecap: butt; stroke-dashoffset: 0; stroke-linejoin: miter; stroke-miterlimit: 4; fill: rgb(255,210,0); fill-rule: nonzero; opacity: 1;" vector-effect="non-scaling-stroke"  points="41.82,26.39 51.16,-26.39 -15.06,-26.39 -20.8,18.6 -51.16,19.02 -51.16,26.39 41.82,26.39 " />
</g>
		<g transform="matrix(1 0 0 1 -80.1 89.87)" id="person_data-visualization-52"  >
<circle style="stroke: none; stroke-width: 1; stroke-dasharray: none; stroke-linecap: butt; stroke-dashoffset: 0; stroke-linejoin: miter; stroke-miterlimit: 4; fill: rgb(255,255,255); fill-rule: nonzero; opacity: 1;" vector-effect="non-scaling-stroke"  cx="0" cy="0" r="6.63" />
</g>
		<g transform="matrix(1 0 0 1 -125.3 -66.03)" id="person_data-visualization-52"  >
<path style="stroke: none; stroke-width: 1; stroke-dasharray: none; stroke-linecap: butt; stroke-dashoffset: 0; stroke-linejoin: miter; stroke-miterlimit: 4; fill: rgb(104,225,253); fill-rule: nonzero; opacity: 1;" vector-effect="non-scaling-stroke"  transform=" translate(-124.7, -183.97)" d="M 99.14 180.3 C 99.14 180.3 91.16 171.87 112.79 170.96 C 134.41 170.04000000000002 156.06 172.66 150.94 191.06 C 145.82 209.45 99.14 180.31 99.14 180.31 Z" stroke-linecap="round" />
</g>
		<g transform="matrix(1 0 0 1 -125.3 -66.03)" id="person_data-visualization-52"  >
<path style="stroke: none; stroke-width: 1; stroke-dasharray: none; stroke-linecap: butt; stroke-dashoffset: 0; stroke-linejoin: miter; stroke-miterlimit: 4; fill: rgb(255,255,255); fill-rule: nonzero; opacity: 0.46;" vector-effect="non-scaling-stroke"  transform=" translate(-124.7, -183.97)" d="M 99.14 180.3 C 99.14 180.3 91.16 171.87 112.79 170.96 C 134.41 170.04000000000002 156.06 172.66 150.94 191.06 C 145.82 209.45 99.14 180.31 99.14 180.31 Z" stroke-linecap="round" />
</g>
</g>
</g>
</svg>